<svg width="450" height="332" viewBox="0 0 450 332" fill="none" xmlns="http://www.w3.org/2000/svg">
<path d="M387.989 84.1941C387.989 84.1941 383.117 98.6917 350.649 94.7334L214.667 26.3016L213.947 26.6681V0.0918956C217.061 -0.136156 220.769 0.00230381 223.947 1.17514C231.034 3.81403 388 84.2023 388 84.2023L387.989 84.1941Z" fill="#CCCCCC"/>
<path d="M43.1569 84.1941C43.1569 84.1941 48.0296 98.6917 80.497 94.7334L216.489 26.3016L217.21 26.6681V0.0918956C214.095 -0.136156 210.388 0.00230381 207.21 1.17514C200.123 3.81403 43.1569 84.2023 43.1569 84.2023V84.1941Z" fill="#CCCCCC"/>
<path d="M190.294 174.289H175.575V85.3736H190.294V174.289ZM212.975 85.3736H227.452V174.289H212.975V85.3736ZM239.758 85.3736C247.238 85.3736 253.793 86.5801 259.423 88.993C265.133 91.3254 269.839 94.4622 273.538 98.4033C277.319 102.344 280.134 106.848 281.983 111.915C283.833 116.902 284.758 122.05 284.758 127.358C284.758 134.677 283.954 140.951 282.345 146.178C280.817 151.326 278.847 155.669 276.434 159.208C274.021 162.667 271.286 165.401 268.23 167.412C265.254 169.423 262.359 170.951 259.544 171.996C256.729 172.962 254.155 173.605 251.822 173.927C249.49 174.168 247.761 174.289 246.635 174.289H232.399V163.672H241.809C251.621 163.672 258.699 160.535 263.042 154.262C267.385 147.988 269.557 138.9 269.557 126.996C269.557 123.296 269.115 119.637 268.23 116.017C267.345 112.398 265.616 109.141 263.042 106.245C260.549 103.269 257.131 100.897 252.787 99.1271C248.444 97.2772 242.814 96.3523 235.897 96.3523H232.399V85.3736H239.758Z" fill="#CCCCCC"/>
<path d="M103.801 213.897H111.665V262.198H103.801V213.897ZM118.35 213.897C122.413 213.897 125.974 214.552 129.033 215.863C132.135 217.13 134.691 218.834 136.701 220.975C138.754 223.116 140.283 225.562 141.288 228.315C142.293 231.024 142.795 233.82 142.795 236.704C142.795 240.68 142.359 244.088 141.485 246.928C140.655 249.724 139.584 252.083 138.273 254.006C136.963 255.884 135.477 257.37 133.817 258.462C132.2 259.554 130.627 260.384 129.098 260.952C127.569 261.477 126.171 261.826 124.904 262.001C123.637 262.132 122.697 262.198 122.086 262.198H114.352V256.43H119.464C124.795 256.43 128.639 254.726 130.999 251.319C133.358 247.911 134.538 242.973 134.538 236.507C134.538 234.497 134.298 232.509 133.817 230.543C133.336 228.577 132.397 226.808 130.999 225.235C129.644 223.618 127.787 222.329 125.428 221.368C123.069 220.363 120.01 219.861 116.253 219.861H114.352V213.897H118.35ZM154.199 213.897H162.194V262.198H154.199V213.897ZM182.38 240.439H164.881V235.065H182.38V240.439ZM164.881 256.234H184.412V262.198H164.881V256.234ZM184.412 213.897V219.861H164.881V213.897H184.412ZM217.377 221.368C217.158 221.281 216.896 221.128 216.59 220.909C216.284 220.691 215.848 220.494 215.28 220.319C214.712 220.101 213.991 219.926 213.117 219.795C212.243 219.664 211.129 219.642 209.774 219.73V213.11C211.697 213.154 213.641 213.373 215.607 213.766C217.617 214.115 219.234 214.683 220.457 215.47C220.195 216.038 219.889 216.671 219.539 217.37C219.19 218.026 218.862 218.659 218.556 219.271C218.251 219.839 217.988 220.319 217.77 220.713C217.551 221.106 217.42 221.324 217.377 221.368ZM194.766 226.611C194.766 224.689 195.094 222.963 195.749 221.434C196.405 219.904 197.279 218.572 198.371 217.436C199.507 216.256 200.818 215.339 202.303 214.683C203.832 213.984 205.427 213.525 207.087 213.307V220.188C205.689 220.669 204.531 221.521 203.614 222.744C202.696 223.924 202.238 225.126 202.238 226.349C202.238 228.053 202.696 229.429 203.614 230.478C204.531 231.526 205.689 232.444 207.087 233.23V240.702C205.646 240.002 204.204 239.26 202.762 238.473C201.32 237.643 200.009 236.682 198.83 235.59C197.65 234.497 196.667 233.23 195.881 231.788C195.138 230.347 194.766 228.621 194.766 226.611ZM195.815 253.35C196.427 253.7 197.191 254.049 198.109 254.399C199.07 254.705 200.053 255.01 201.058 255.316C202.063 255.578 203.068 255.797 204.073 255.972C205.078 256.146 206.017 256.234 206.891 256.234H207.087V262.46H206.956C205.908 262.46 204.815 262.394 203.679 262.263C202.587 262.176 201.473 262.001 200.337 261.739C199.201 261.477 198.109 261.127 197.06 260.69C196.055 260.21 195.181 259.642 194.439 258.986L195.815 253.35ZM209.774 234.541C211.216 235.196 212.68 235.895 214.165 236.638C215.695 237.381 217.071 238.298 218.294 239.391C219.518 240.439 220.522 241.728 221.309 243.257C222.095 244.787 222.489 246.687 222.489 248.959C222.489 250.532 222.183 252.061 221.571 253.547C221.003 255.032 220.173 256.387 219.081 257.61C218.032 258.79 216.721 259.795 215.148 260.625C213.576 261.455 211.784 262.001 209.774 262.263V255.972C213.357 255.098 215.148 252.717 215.148 248.828C215.148 247.299 214.646 246.032 213.641 245.027C212.636 244.022 211.347 243.083 209.774 242.209V234.541ZM238.807 262.198H230.812V213.897H238.807V262.198ZM278.13 223.203C277.081 221.936 275.88 221.019 274.525 220.451C273.171 219.883 271.773 219.599 270.331 219.599H270.069V213.11H270.134C272.756 213.11 275.202 213.547 277.474 214.421C279.746 215.295 281.778 216.606 283.569 218.353L278.13 223.203ZM250.014 237.818C250.014 234.06 250.451 230.74 251.325 227.856C252.199 224.929 253.4 222.46 254.929 220.451C256.459 218.397 258.294 216.78 260.435 215.601C262.575 214.421 264.891 213.678 267.382 213.373V219.926C266.071 220.276 264.847 220.866 263.711 221.696C262.619 222.526 261.636 223.684 260.762 225.169C259.932 226.611 259.277 228.381 258.796 230.478C258.316 232.531 258.053 234.978 258.01 237.818C258.053 240.658 258.316 243.148 258.796 245.289C259.277 247.43 259.932 249.287 260.762 250.86C261.636 252.389 262.619 253.612 263.711 254.53C264.847 255.447 266.071 256.081 267.382 256.43V262.394C264.891 262.088 262.575 261.346 260.435 260.166C258.294 258.943 256.459 257.304 254.929 255.251C253.4 253.197 252.199 250.729 251.325 247.845C250.451 244.918 250.014 241.575 250.014 237.818ZM286.06 237.294V255.972C285.055 257.239 283.919 258.287 282.652 259.117C281.428 259.904 280.118 260.559 278.719 261.084C277.365 261.608 275.945 261.979 274.46 262.198C273.018 262.416 271.576 262.525 270.134 262.525H270.069V256.758C270.593 256.758 271.226 256.736 271.969 256.693C272.756 256.605 273.542 256.496 274.328 256.365C275.159 256.19 275.923 255.972 276.622 255.71C277.365 255.447 277.911 255.076 278.261 254.595V242.668H270.069V237.294H286.06ZM324.333 213.897H332.329V262.198H324.333L308.08 233.624V218.55L324.333 247.19V213.897ZM297.398 262.198V213.897H305.393V262.198H297.398Z" fill="#CCCCCC"/>
<path d="M20.662 308.557V327.242H18.7664V312.321L12.1048 327.242H10.7237L4.062 312.375V327.242H2.1664V308.557H4.17032L11.4007 324.751L18.631 308.557H20.662ZM33.4654 327.432C31.7142 327.432 30.1255 327.026 28.6993 326.213C27.2731 325.383 26.1448 324.236 25.3143 322.774C24.5019 321.294 24.0957 319.624 24.0957 317.764C24.0957 315.905 24.5019 314.244 25.3143 312.781C26.1448 311.301 27.2731 310.155 28.6993 309.342C30.1255 308.512 31.7142 308.097 33.4654 308.097C35.2346 308.097 36.8323 308.512 38.2585 309.342C39.6848 310.155 40.8041 311.301 41.6165 312.781C42.4289 314.244 42.8351 315.905 42.8351 317.764C42.8351 319.624 42.4289 321.294 41.6165 322.774C40.8041 324.236 39.6848 325.383 38.2585 326.213C36.8323 327.026 35.2346 327.432 33.4654 327.432ZM33.4654 325.78C34.8735 325.78 36.1373 325.455 37.2566 324.805C38.3759 324.155 39.2605 323.225 39.9104 322.016C40.5603 320.788 40.8853 319.371 40.8853 317.764C40.8853 316.157 40.5603 314.749 39.9104 313.54C39.2605 312.33 38.3759 311.4 37.2566 310.75C36.1373 310.101 34.8735 309.776 33.4654 309.776C32.0572 309.776 30.7935 310.101 29.6742 310.75C28.5549 311.4 27.6703 312.33 27.0203 313.54C26.3704 314.749 26.0455 316.157 26.0455 317.764C26.0455 319.371 26.3704 320.788 27.0203 322.016C27.6703 323.225 28.5549 324.155 29.6742 324.805C30.7935 325.455 32.0572 325.78 33.4654 325.78ZM36.0921 304.197L30.5407 307.42V305.957L36.0921 302.491V304.197ZM61.3059 308.313L54.1297 327.242H51.9633L44.7871 308.313H46.8452L53.0465 325.184L59.302 308.313H61.3059ZM66.0498 309.857V316.925H73.226V318.495H66.0498V325.672H74.0384V327.242H64.1542V308.286H74.0384V309.857H66.0498ZM79.6691 308.313V327.242H77.7735V308.313H79.6691ZM89.7027 327.432C88.457 327.432 87.3558 327.215 86.3989 326.782C85.4602 326.349 84.72 325.744 84.1784 324.967C83.6368 324.191 83.3479 323.325 83.3118 322.368H85.3157C85.406 323.289 85.8122 324.101 86.5343 324.805C87.2565 325.491 88.3126 325.834 89.7027 325.834C90.9845 325.834 91.9955 325.509 92.7357 324.859C93.4939 324.191 93.873 323.352 93.873 322.341C93.873 321.528 93.6654 320.878 93.2502 320.391C92.835 319.885 92.3204 319.515 91.7066 319.281C91.0928 319.028 90.2443 318.757 89.1611 318.468C87.8974 318.125 86.8954 317.791 86.1552 317.466C85.415 317.141 84.7832 316.636 84.2596 315.95C83.7361 315.264 83.4743 314.334 83.4743 313.161C83.4743 312.186 83.7271 311.319 84.2325 310.561C84.738 309.785 85.4511 309.18 86.3719 308.747C87.2926 308.313 88.3487 308.097 89.5402 308.097C91.2914 308.097 92.6996 308.53 93.7647 309.396C94.8479 310.245 95.4708 311.346 95.6332 312.7H93.5751C93.4488 311.924 93.0245 311.238 92.3024 310.642C91.5803 310.028 90.6054 309.721 89.3777 309.721C88.2404 309.721 87.2926 310.028 86.5343 310.642C85.7761 311.238 85.397 312.059 85.397 313.106C85.397 313.901 85.6046 314.542 86.0198 315.029C86.4351 315.517 86.9496 315.887 87.5634 316.139C88.1953 316.392 89.0438 316.663 90.1089 316.952C91.3365 317.295 92.3295 317.638 93.0877 317.981C93.8459 318.306 94.4868 318.811 95.0104 319.497C95.5339 320.183 95.7957 321.104 95.7957 322.259C95.7957 323.144 95.561 323.984 95.0916 324.778C94.6222 325.572 93.9272 326.213 93.0065 326.701C92.0857 327.188 90.9845 327.432 89.7027 327.432ZM108.785 309.857V316.925H115.962V318.495H108.785V325.672H116.774V327.242H106.89V308.286H116.774V309.857H108.785ZM140.045 313.756C140.045 315.381 139.512 316.69 138.447 317.683C137.382 318.676 135.784 319.172 133.654 319.172H129.836V327.242H127.94V308.313H133.654C135.766 308.313 137.355 308.81 138.42 309.803C139.503 310.796 140.045 312.113 140.045 313.756ZM133.654 317.548C136.615 317.548 138.095 316.284 138.095 313.756C138.095 312.493 137.743 311.536 137.039 310.886C136.335 310.236 135.207 309.911 133.654 309.911H129.836V317.548H133.654ZM153.299 327.242L148.615 319.335H145.121V327.242H143.226V308.313H148.912C151.025 308.313 152.622 308.819 153.706 309.83C154.807 310.841 155.358 312.168 155.358 313.811C155.358 315.183 154.96 316.356 154.166 317.331C153.39 318.288 152.234 318.911 150.7 319.199L155.574 327.242H153.299ZM145.121 317.791H148.94C150.42 317.791 151.53 317.43 152.27 316.708C153.029 315.986 153.408 315.02 153.408 313.811C153.408 312.565 153.047 311.608 152.325 310.94C151.602 310.254 150.465 309.911 148.912 309.911H145.121V317.791ZM167.622 327.432C165.871 327.432 164.283 327.026 162.856 326.213C161.43 325.383 160.302 324.236 159.471 322.774C158.659 321.294 158.253 319.624 158.253 317.764C158.253 315.905 158.659 314.244 159.471 312.781C160.302 311.301 161.43 310.155 162.856 309.342C164.283 308.512 165.871 308.097 167.622 308.097C169.392 308.097 170.989 308.512 172.416 309.342C173.842 310.155 174.961 311.301 175.774 312.781C176.586 314.244 176.992 315.905 176.992 317.764C176.992 319.624 176.586 321.294 175.774 322.774C174.961 324.236 173.842 325.383 172.416 326.213C170.989 327.026 169.392 327.432 167.622 327.432ZM167.622 325.78C169.031 325.78 170.294 325.455 171.414 324.805C172.533 324.155 173.418 323.225 174.067 322.016C174.717 320.788 175.042 319.371 175.042 317.764C175.042 316.157 174.717 314.749 174.067 313.54C173.418 312.33 172.533 311.4 171.414 310.75C170.294 310.101 169.031 309.776 167.622 309.776C166.214 309.776 164.951 310.101 163.831 310.75C162.712 311.4 161.827 312.33 161.177 313.54C160.527 314.749 160.203 316.157 160.203 317.764C160.203 319.371 160.527 320.788 161.177 322.016C161.827 323.225 162.712 324.155 163.831 324.805C164.951 325.455 166.214 325.78 167.622 325.78ZM189.208 308.313V322.639C189.208 324.083 188.765 325.247 187.881 326.132C186.996 326.998 185.814 327.432 184.333 327.432C182.799 327.432 181.571 326.971 180.65 326.051C179.748 325.112 179.296 323.848 179.296 322.259H181.219C181.237 323.289 181.49 324.128 181.977 324.778C182.483 325.428 183.268 325.753 184.333 325.753C185.344 325.753 186.093 325.455 186.581 324.859C187.068 324.263 187.312 323.523 187.312 322.639V308.313H189.208ZM195.87 309.857V316.925H203.046V318.495H195.87V325.672H203.858V327.242H193.974V308.286H203.858V309.857H195.87ZM218.669 308.313V309.884H213.416V327.242H211.52V309.884H206.24V308.313H218.669ZM230.166 327.432C228.414 327.432 226.826 327.026 225.4 326.213C223.973 325.383 222.845 324.236 222.015 322.774C221.202 321.294 220.796 319.624 220.796 317.764C220.796 315.905 221.202 314.244 222.015 312.781C222.845 311.301 223.973 310.155 225.4 309.342C226.826 308.512 228.414 308.097 230.166 308.097C231.935 308.097 233.533 308.512 234.959 309.342C236.385 310.155 237.504 311.301 238.317 312.781C239.129 314.244 239.535 315.905 239.535 317.764C239.535 319.624 239.129 321.294 238.317 322.774C237.504 324.236 236.385 325.383 234.959 326.213C233.533 327.026 231.935 327.432 230.166 327.432ZM230.166 325.78C231.574 325.78 232.838 325.455 233.957 324.805C235.076 324.155 235.961 323.225 236.611 322.016C237.261 320.788 237.586 319.371 237.586 317.764C237.586 316.157 237.261 314.749 236.611 313.54C235.961 312.33 235.076 311.4 233.957 310.75C232.838 310.101 231.574 309.776 230.166 309.776C228.757 309.776 227.494 310.101 226.374 310.75C225.255 311.4 224.37 312.33 223.721 313.54C223.071 314.749 222.746 316.157 222.746 317.764C222.746 319.371 223.071 320.788 223.721 322.016C224.37 323.225 225.255 324.155 226.374 324.805C227.494 325.455 228.757 325.78 230.166 325.78ZM248.745 327.432C247.499 327.432 246.398 327.215 245.441 326.782C244.502 326.349 243.762 325.744 243.221 324.967C242.679 324.191 242.39 323.325 242.354 322.368H244.358C244.448 323.289 244.854 324.101 245.576 324.805C246.299 325.491 247.355 325.834 248.745 325.834C250.027 325.834 251.038 325.509 251.778 324.859C252.536 324.191 252.915 323.352 252.915 322.341C252.915 321.528 252.708 320.878 252.292 320.391C251.877 319.885 251.363 319.515 250.749 319.281C250.135 319.028 249.286 318.757 248.203 318.468C246.939 318.125 245.938 317.791 245.197 317.466C244.457 317.141 243.825 316.636 243.302 315.95C242.778 315.264 242.516 314.334 242.516 313.161C242.516 312.186 242.769 311.319 243.275 310.561C243.78 309.785 244.493 309.18 245.414 308.747C246.335 308.313 247.391 308.097 248.582 308.097C250.334 308.097 251.742 308.53 252.807 309.396C253.89 310.245 254.513 311.346 254.675 312.7H252.617C252.491 311.924 252.067 311.238 251.345 310.642C250.622 310.028 249.647 309.721 248.42 309.721C247.283 309.721 246.335 310.028 245.576 310.642C244.818 311.238 244.439 312.059 244.439 313.106C244.439 313.901 244.647 314.542 245.062 315.029C245.477 315.517 245.992 315.887 246.606 316.139C247.237 316.392 248.086 316.663 249.151 316.952C250.379 317.295 251.372 317.638 252.13 317.981C252.888 318.306 253.529 318.811 254.053 319.497C254.576 320.183 254.838 321.104 254.838 322.259C254.838 323.144 254.603 323.984 254.134 324.778C253.664 325.572 252.969 326.213 252.049 326.701C251.128 327.188 250.027 327.432 248.745 327.432ZM271.537 308.313C273.632 308.313 275.428 308.692 276.926 309.451C278.425 310.209 279.571 311.301 280.366 312.727C281.16 314.154 281.557 315.851 281.557 317.818C281.557 319.768 281.16 321.456 280.366 322.882C279.571 324.29 278.425 325.374 276.926 326.132C275.428 326.872 273.632 327.242 271.537 327.242H265.932V308.313H271.537ZM271.537 325.672C274.173 325.672 276.177 324.986 277.549 323.613C278.939 322.223 279.634 320.292 279.634 317.818C279.634 315.327 278.939 313.386 277.549 311.996C276.177 310.588 274.173 309.884 271.537 309.884H267.828V325.672H271.537ZM286.947 309.857V316.925H294.124V318.495H286.947V325.672H294.936V327.242H285.052V308.286H294.936V309.857H286.947ZM307.998 308.313V327.242H306.102V308.313H307.998ZM326.562 327.242H324.666L314.186 311.319V327.242H312.291V308.313H314.186L324.666 324.209V308.313H326.562V327.242ZM341.931 308.313V309.884H336.677V327.242H334.782V309.884H329.501V308.313H341.931ZM346.82 309.857V316.925H353.996V318.495H346.82V325.672H354.808V327.242H344.924V308.286H354.808V309.857H346.82ZM368.617 327.242L363.932 319.335H360.439V327.242H358.543V308.313H364.23C366.342 308.313 367.94 308.819 369.023 309.83C370.125 310.841 370.675 312.168 370.675 313.811C370.675 315.183 370.278 316.356 369.484 317.331C368.707 318.288 367.552 318.911 366.018 319.199L370.892 327.242H368.617ZM360.439 317.791H364.257C365.738 317.791 366.848 317.43 367.588 316.708C368.346 315.986 368.726 315.02 368.726 313.811C368.726 312.565 368.364 311.608 367.642 310.94C366.92 310.254 365.783 309.911 364.23 309.911H360.439V317.791ZM376.333 308.313V327.242H374.437V308.313H376.333ZM389.128 327.432C387.377 327.432 385.789 327.026 384.362 326.213C382.936 325.383 381.808 324.236 380.977 322.774C380.165 321.294 379.759 319.624 379.759 317.764C379.759 315.905 380.165 314.244 380.977 312.781C381.808 311.301 382.936 310.155 384.362 309.342C385.789 308.512 387.377 308.097 389.128 308.097C390.898 308.097 392.495 308.512 393.922 309.342C395.348 310.155 396.467 311.301 397.279 312.781C398.092 314.244 398.498 315.905 398.498 317.764C398.498 319.624 398.092 321.294 397.279 322.774C396.467 324.236 395.348 325.383 393.922 326.213C392.495 327.026 390.898 327.432 389.128 327.432ZM389.128 325.78C390.537 325.78 391.8 325.455 392.92 324.805C394.039 324.155 394.924 323.225 395.573 322.016C396.223 320.788 396.548 319.371 396.548 317.764C396.548 316.157 396.223 314.749 395.573 313.54C394.924 312.33 394.039 311.4 392.92 310.75C391.8 310.101 390.537 309.776 389.128 309.776C387.72 309.776 386.456 310.101 385.337 310.75C384.218 311.4 383.333 312.33 382.683 313.54C382.033 314.749 381.708 316.157 381.708 317.764C381.708 319.371 382.033 320.788 382.683 322.016C383.333 323.225 384.218 324.155 385.337 324.805C386.456 325.455 387.72 325.78 389.128 325.78ZM412.04 327.242L407.356 319.335H403.862V327.242H401.967V308.313H407.653C409.766 308.313 411.363 308.819 412.447 309.83C413.548 310.841 414.098 312.168 414.098 313.811C414.098 315.183 413.701 316.356 412.907 317.331C412.131 318.288 410.975 318.911 409.441 319.199L414.315 327.242H412.04ZM403.862 317.791H407.681C409.161 317.791 410.271 317.43 411.011 316.708C411.77 315.986 412.149 315.02 412.149 313.811C412.149 312.565 411.788 311.608 411.066 310.94C410.343 310.254 409.206 309.911 407.653 309.911H403.862V317.791ZM419.756 309.857V316.925H426.932V318.495H419.756V325.672H427.744V327.242H417.86V308.286H427.744V309.857H419.756ZM437.221 327.432C435.975 327.432 434.874 327.215 433.917 326.782C432.978 326.349 432.238 325.744 431.696 324.967C431.155 324.191 430.866 323.325 430.83 322.368H432.834C432.924 323.289 433.33 324.101 434.052 324.805C434.774 325.491 435.83 325.834 437.221 325.834C438.502 325.834 439.513 325.509 440.254 324.859C441.012 324.191 441.391 323.352 441.391 322.341C441.391 321.528 441.183 320.878 440.768 320.391C440.353 319.885 439.838 319.515 439.224 319.281C438.611 319.028 437.762 318.757 436.679 318.468C435.415 318.125 434.413 317.791 433.673 317.466C432.933 317.141 432.301 316.636 431.777 315.95C431.254 315.264 430.992 314.334 430.992 313.161C430.992 312.186 431.245 311.319 431.75 310.561C432.256 309.785 432.969 309.18 433.89 308.747C434.81 308.313 435.867 308.097 437.058 308.097C438.809 308.097 440.217 308.53 441.283 309.396C442.366 310.245 442.989 311.346 443.151 312.7H441.093C440.967 311.924 440.542 311.238 439.82 310.642C439.098 310.028 438.123 309.721 436.896 309.721C435.758 309.721 434.81 310.028 434.052 310.642C433.294 311.238 432.915 312.059 432.915 313.106C432.915 313.901 433.122 314.542 433.538 315.029C433.953 315.517 434.467 315.887 435.081 316.139C435.713 316.392 436.562 316.663 437.627 316.952C438.854 317.295 439.847 317.638 440.606 317.981C441.364 318.306 442.005 318.811 442.528 319.497C443.052 320.183 443.314 321.104 443.314 322.259C443.314 323.144 443.079 323.984 442.609 324.778C442.14 325.572 441.445 326.213 440.524 326.701C439.604 327.188 438.502 327.432 437.221 327.432Z" fill="#CCCCCC"/>
</svg>
